<?xml version="1.0" ?><svg data-name="Слой 1" id="Слой_1" viewBox="0 0 512 512" xmlns="http://www.w3.org/2000/svg"><defs><style>.cls-1{fill:#919396;}.cls-2{fill:#414042;}.cls-3{fill:#ddd1c3;}.cls-4{fill:#333;}.cls-5{fill:#1a1a1a;}.cls-6{fill:#666;}.cls-7{fill:#3fa7f3;}</style></defs><title/><path class="cls-1" d="M423.33,312.37a11.33,11.33,0,1,0,11.34,11.33A11.33,11.33,0,0,0,423.33,312.37Z"/><circle class="cls-1" cx="126.18" cy="330.23" r="11.33"/><path class="cls-2" d="M424.33,288.72a35.5,35.5,0,1,0,35.5,35.5A35.5,35.5,0,0,0,424.33,288.72Zm0,58a22.5,22.5,0,1,1,22.5-22.5A22.51,22.51,0,0,1,424.33,346.72Z"/><path class="cls-2" d="M127.18,295.24a35.5,35.5,0,1,0,35.5,35.5A35.51,35.51,0,0,0,127.18,295.24Zm0,58a22.5,22.5,0,1,1,22.5-22.5A22.49,22.49,0,0,1,127.18,353.24Z"/><path class="cls-3" d="M24.83,320.37s4.5,3.3,23.84,3,24.66,0,24.66,0,6.17.65,8.34-2.19S89,302.51,93.83,297.51s10.84-7,17-7.67,16.67-1.83,25.84-.67S150,293,154,298.84s7.17,19.83,9.67,22.5,2,6.67,12.5,6.67,193.66.33,193.66.33,4.67.67,6.17-3.17,7.67-29.16,16.83-37.33,15.5-8.33,28.5-8.33,19,1.83,25.17,7.66,12.83,26,15,28.67,4.33,4.5,6.5,4.33,4.17-1,2.67-2.66-3.34-4.34-2.84-7.34,5-13.66,5-13.66,7.17-.17,8.17-1.34,6.67-19.83,6.67-27,.83-10.33.83-10.33v-1.67s-7.17-4.66-36.67-7.83-76.33-5.5-76.33-5.5-4.67,1.33-5.83.67-3.84-4-3.84-4L324.5,196.67s.17-2.16-1.17-2.83S320.17,188.51,303,188s-24.33-1.34-64.17-1.5-81.5,3-90.16,4.83-14.67,3.5-16.34,5.5-1.16,5.33-1.16,5.33L93.5,240.67s-2.5.34-2.83,1.5.5,2-1.17,3.17S67.17,248,53.83,249.49s-43.16,6.18-44.5,7-5.16,6.66-5.16,6.66V280s3.5,15.55,4.33,16.19a11.05,11.05,0,0,0,3.67,2.31,4.14,4.14,0,0,1,3,2.33C15.5,301.84,24.83,320.37,24.83,320.37Z"/><path class="cls-4" d="M117.5,232.94c-.5.17-5.33,8.33-5.33,8.33h25.5l5-8.33Z"/><path class="cls-2" d="M35.67,298.16,3.83,299a39.08,39.08,0,0,0-2.33,4.17v7.67l4.17,5.66,34,1.36s-1.67-7.5-2.17-9.43S35.67,298.16,35.67,298.16Z"/><path class="cls-2" d="M498,297l-2.33-2.5-8.27-4-2.4,2.17L476.83,294l-5,13.67s.8,4.43,1.84,3.67,20.5-2,21.16-1.67,4.5,1.67,4.5,1.67V297Z"/><path class="cls-5" d="M427.33,361.11a37,37,0,1,1,37-37A37,37,0,0,1,427.33,361.11Zm0-71a34,34,0,1,0,34,34A34,34,0,0,0,427.33,290.11Z"/><path class="cls-5" d="M427.33,348.11a24,24,0,1,1,24-24A24,24,0,0,1,427.33,348.11Zm0-45a21,21,0,1,0,21,21A21,21,0,0,0,427.33,303.11Z"/><path class="cls-5" d="M427.33,336.94a12.83,12.83,0,1,1,12.84-12.83A12.85,12.85,0,0,1,427.33,336.94Zm0-22.66a9.83,9.83,0,1,0,9.84,9.83A9.84,9.84,0,0,0,427.33,314.28Z"/><path class="cls-5" d="M130.18,367.63a37,37,0,1,1,37-37A37,37,0,0,1,130.18,367.63Zm0-71a34,34,0,1,0,34,34A34,34,0,0,0,130.18,296.63Z"/><path class="cls-5" d="M130.18,354.63a24,24,0,1,1,24-24A24,24,0,0,1,130.18,354.63Zm0-45a21,21,0,1,0,21,21A21,21,0,0,0,130.18,309.63Z"/><path class="cls-5" d="M130.18,343.47A12.84,12.84,0,1,1,143,330.63,12.85,12.85,0,0,1,130.18,343.47Zm0-22.67a9.84,9.84,0,1,0,9.84,9.83A9.84,9.84,0,0,0,130.18,320.8Z"/><path class="cls-5" d="M376.65,328.83a6.56,6.56,0,0,1-.92-.06c-5.11,0-183.28-.33-193.56-.33-8.35,0-10.49-2.37-12.41-5.47a10.6,10.6,0,0,0-1.19-1.67c-1.33-1.42-2.51-4.66-4.32-9.84-1.64-4.65-3.49-9.92-5.49-12.84-3.95-5.77-7.91-8-16.28-9-8.86-1.13-19.09,0-25.21.64l-.28,0c-6.84.74-12.1,3.1-16.08,7.21-2.84,2.94-6,10.41-8.36,15.86C91,317,89.78,319.81,88.86,321c-2.6,3.4-9,2.85-9.68,2.77h0s-5.54-.34-24.49,0c-19.28.32-24.24-2.89-24.75-3.26l-.28-.21-.17-.32c-2.2-4.37-9.41-18.71-9.75-19.73-.18-.54-.91-1-2-1.37a10.37,10.37,0,0,1-3.69-2.18l-.46-.38c-.48-.36-1.27-1-4.89-17.05l0-.33V261.66l.24-.37c1.21-1.84,4.17-6.21,5.63-7.12,2-1.24,34.86-6.07,45.12-7.23,4.42-.51,9.65-1,14.7-1.48,8.46-.81,19-1.81,20.36-2.46.39-.28.39-.28.37-.8a4.41,4.41,0,0,1,.13-1.5c.47-1.64,2.44-2.27,3.55-2.49l36.84-37.65a8.47,8.47,0,0,1,1.57-5.75c1.75-2.1,6.41-3.73,17.18-6,8.34-1.77,50.1-5,90.48-4.87,29.09.12,40.55.59,51.64,1,4.08.17,7.93.33,12.56.46,15,.44,18.89,4.08,20.57,5.64.15.14.35.32.42.37a4.07,4.07,0,0,1,2,3.55l41,42.5a25.24,25.24,0,0,0,3.36,3.61,15.82,15.82,0,0,0,4.73-.78l.24-.07.24,0c.47,0,47.22,2.37,76.42,5.5,29.52,3.17,37,7.87,37.33,8.07l.68.44-.05,2.87a45.59,45.59,0,0,0-.78,9.95c0,7.15-5.57,26.27-7,28-.89,1-3.68,1.66-8.3,1.83-1.41,3.42-4.17,10.33-4.53,12.45-.31,1.86.52,3.91,2.47,6.08a2.73,2.73,0,0,1,.74,2.95c-.64,1.6-2.75,2.09-4.4,2.21-3.21.27-6-2.67-7.78-4.88-.85-1-1.91-3.49-3.88-8.09-2.86-6.7-7.18-16.83-11-20.43-5.88-5.56-11.52-7.26-24.14-7.26-13.21,0-18.91.31-27.5,7.95-7.17,6.39-12.53,24.1-15.11,32.6-.59,2-1,3.41-1.32,4.17C382.09,328,378.84,328.83,376.65,328.83ZM134,286.11a70.38,70.38,0,0,1,8.86.51c9.15,1.16,14,3.86,18.38,10.31,2.22,3.24,4.14,8.71,5.84,13.54,1.33,3.81,2.72,7.75,3.68,8.78a12.67,12.67,0,0,1,1.55,2.14c1.35,2.17,2.51,4.05,9.86,4.05,10.38,0,191.83.33,193.67.33l.2,0c.14,0,3.52.43,4.56-2.23.26-.65.7-2.1,1.25-3.94,2.66-8.77,8.19-27,16-34,9.79-8.71,16.79-8.71,29.5-8.71,13.37,0,19.74,2,26.2,8.08,4.26,4,8.56,14.09,11.69,21.43a59.74,59.74,0,0,0,3.44,7.38c2.13,2.61,3.86,3.88,5.23,3.78a6.27,6.27,0,0,0,1.55-.29c-2.48-2.8-3.54-5.72-3.09-8.46.52-3.08,4.63-12.89,5.1-14l.38-.9,1,0c3.05-.07,6.25-.46,7.07-.86,1.23-2.33,6.3-19.4,6.3-26A50.39,50.39,0,0,1,493,256.6V256c-2.38-1.12-11.49-4.68-35.33-7.24-28-3-72.3-5.3-76-5.48-2.37.66-5.38,1.24-6.75.45s-3.5-3.41-4.21-4.31L329,196.16l.05-.67c0-.56-.13-1.27-.34-1.37a4.74,4.74,0,0,1-1.09-.85c-1.43-1.32-4.78-4.43-18.61-4.83-4.66-.13-8.51-.29-12.6-.46-11.06-.45-22.5-.92-51.53-1-40.21-.17-81.61,3.06-89.85,4.8-3.77.8-13.76,2.91-15.49,5-1,1.21-.94,3.45-.84,4.15l.11.73L100.21,241l-.51.06a4.57,4.57,0,0,0-1.61.53,3.3,3.3,0,0,0,0,.47,3.5,3.5,0,0,1-1.72,3.41c-1.25.88-6,1.45-21.72,2.94-5,.48-10.25,1-14.64,1.48-13.84,1.57-41.4,6-43.93,6.83a41,41,0,0,0-4.4,5.81v16.21c1.49,6.62,3.33,14,3.95,15.34l.34.28A7.61,7.61,0,0,0,18.6,296c2.65.8,3.63,2.24,4,3.3.34.89,5.85,11.91,9.38,18.92,1.23.61,6.84,2.82,22.67,2.55,19.18-.33,24.57,0,24.79,0,1.44.15,5.7.15,7-1.6a54,54,0,0,0,3.31-7c2.56-6,5.74-13.43,9-16.76,4.49-4.64,10.35-7.3,17.92-8.12l.28,0A159.35,159.35,0,0,1,134,286.11ZM15.69,294.23h0Z"/><path class="cls-5" d="M43.55,320.88,6.89,319.41,2,312.77v-8.52l.16-.31a25.78,25.78,0,0,1,2.61-4.56L5.2,299l33.74-.89.21,1.3c.46,2.86,1.42,8.65,1.8,10.13.5,1.93,2.11,9.17,2.18,9.48Zm-35.1-4.41,31.33,1.25c-.53-2.35-1.4-6.19-1.73-7.47-.4-1.52-1.26-6.67-1.65-9.11l-29.77.78c-.4.68-1.06,1.91-1.63,3v6.82Z"/><rect class="cls-5" height="3" transform="translate(-0.35 0.32) rotate(-0.07)" width="467.17" x="12.33" y="265.11"/><path class="cls-6" d="M250.54,253.13c-.54.5,0,6.5,0,6.5H268v-6.5Z"/><path class="cls-6" d="M145.22,259.63h17.46v-6.5H145.22C144.68,253.63,145.22,259.63,145.22,259.63Z"/><path class="cls-7" d="M311.67,198.67c-3-.84-64.67-1.67-64.67-1.67l2.54,46H345l-26.5-37S314.67,199.5,311.67,198.67Z"/><path class="cls-7" d="M168.33,201.33c-5,1.84-8.16,8.34-8.16,8.34l-20,34.33,98.33-1V197.67l-48.75,1S173.33,199.5,168.33,201.33Z"/><path class="cls-7" d="M133.1,197.67,92.67,238.5l-.09.85s5.59,4.15,7.59,4.65,2.5,0,2.5,0l30.83-41s2-4.17,1.17-4.67A5.88,5.88,0,0,0,133.1,197.67Z"/><path class="cls-7" d="M326.5,193l-.5-2.24s-4.33,2.24-4.33,4.07,15.33,21.84,16,23.34,13.5,19,13.5,19,1.87,3.66,5.35,3.83S369,237.23,369,237.23Z"/><path class="cls-5" d="M247.39,316.62h-1.48c-15.56-.08-66.48-.39-68.68-1.07-2.82-.86-3.41-4.4-3.76-6.51,0-.22-.08-.43-.11-.62-.28-1.52-4.3-11.5-10.39-19.56-4.15-5.5-11.24-7.26-15.93-8.43a14.51,14.51,0,0,1-4.23-1.41c-2.6-1.8-2.78-5.11-2.79-5.67l-1.88-25.23.2-.38c.76-1.45,18.63-35.53,23.52-41.26,4.13-4.84,4.29-5,8.92-7.31.91-.46,2-1,3.36-1.72,8.1-4.22,66.28-3.44,72.88-3.33l1.46,0,.85,51.84V246c0,.19-1.16,19.17-1.16,23.41s-.72,44-.75,45.7Zm-106.2-67.88L143,273.28a4.41,4.41,0,0,0,1.5,3.26,17.22,17.22,0,0,0,3.25,1c4.79,1.19,12.81,3.19,17.59,9.53,6.17,8.17,10.55,18.67,10.95,20.82,0,.21.07.43.11.68.23,1.33.64,3.81,1.69,4.13,2.27.44,40.36.79,66.33.93.14-7.43.73-40.35.73-44.16,0-4.25,1.08-22.16,1.16-23.53l-.81-48.82c-18.74-.25-63.87-.17-70,3-1.37.71-2.48,1.27-3.4,1.73-4.17,2.1-4.17,2.1-8,6.56C159.74,213.58,143.2,244.92,141.19,248.74Z"/><path class="cls-5" d="M351.17,317.27l-104.86-.67,1.19-70.52L247,194h1.51c2.38,0,58.57,0,65.65,1.47s11.25,8.8,11.8,9.85l29.86,41.31,4,4,1.56,15.66c0,.26.5,26.9.67,33.65.1,4.16-.08,11.6-2.47,14.77C357.68,317.15,352.24,317.27,351.17,317.27Zm-101.81-3.65,101.82.65c2.36,0,5.33-.56,5.95-1.4,1-1.36,2.05-5.46,1.87-12.89-.16-6.6-.64-32.18-.67-33.62L356.89,252l-3.44-3.47-30.12-41.71c0-.07-3.62-7.05-9.81-8.37-5.22-1.12-42.13-1.41-62.8-1.41H250l.49,49.09Z"/><path class="cls-5" d="M351.92,247.11h-99.8l-2.71-49,1.61,0c10.33.14,62,.88,65,1.72,3.36.93,6.92,6.66,7.69,8Zm-97-3h91.12l-24.87-34.74c-1.47-2.48-4.28-6.19-5.94-6.65-2.41-.57-38.2-1.25-62.68-1.59Z"/><path class="cls-5" d="M272.5,261.11H252.16l-.12-1.37c-.6-6.73,0-7.28.47-7.73l.44-.4H272.5Zm-17.58-3H269.5v-3.5H254.8C254.78,255.47,254.83,256.79,254.92,258.11Zm0-4.37Z"/><path class="cls-5" d="M167.18,261.11H146.85l-.12-1.37c-.61-6.73,0-7.28.47-7.73l.43-.4h19.55Zm-17.57-3h14.57v-3.5h-14.7C149.47,255.47,149.52,256.79,149.61,258.11Zm-.06-4.37Z"/><path class="cls-5" d="M141.54,248.13l21.3-36.57c.36-.7,3.67-7.08,9-9,5.15-1.89,21.17-2.72,21.85-2.75l50.33-1v48.35ZM241,201.81l-47.22,1c-.12,0-16.2.85-20.93,2.58-4.36,1.6-7.31,7.52-7.34,7.58l0,.1-18.67,32.05,94.21-1Z"/><path class="cls-5" d="M105.72,248.33a8.11,8.11,0,0,1-1.92-.27c-2.18-.54-7.14-4.18-8.12-4.9l1.3-1.74-1.38-1.37,41-41.42.81.18a7.48,7.48,0,0,1,2,.84c1,.6,1.7,1.85-.59,6.61l-.15.25-31,41.16A2.7,2.7,0,0,1,105.72,248.33Zm-7.28-6.88c2.19,1.57,5.07,3.45,6.09,3.7a4.38,4.38,0,0,0,1.22.18l30.46-40.5a19.89,19.89,0,0,0,1-2.52Z"/><path class="cls-5" d="M141.52,242.77h-29l1.34-2.26c5.11-8.65,5.55-8.79,6.15-9l.23-.08h28.06Zm-23.71-3h22l3.2-5.33H121.18C120.55,235.33,119.21,237.47,117.81,239.77Zm3.66-5.7Z"/><path class="cls-5" d="M360.72,245.11h-.27c-3.95-.19-6.15-3.8-6.55-4.53-3.11-4.23-12.93-17.68-13.6-19.2-.28-.53-2.62-3.74-4.89-6.85-9.69-13.3-11.24-15.82-11.24-17.09,0-2.48,3.6-4.6,5.14-5.4l1.73-.89.83,3.72,43.71,45.48-2,.86C372.67,241.62,364.57,245.11,360.72,245.11ZM327.2,197.38c.82,1.91,7.17,10.63,10.63,15.38,3.63,5,4.93,6.77,5.21,7.41.57,1.17,8.48,12.1,13.34,18.72l.12.2s1.54,2.9,4.09,3c1.89.07,6.4-1.45,9.81-2.81l-41.27-43-.14-.61A6.4,6.4,0,0,0,327.2,197.38Z"/><path class="cls-5" d="M494.12,288.94h-6.66l3.69-14.34,1.29-13.83h6.9l-.18,1.67c-.47,4.19-1.16,10.8-1.16,11.83,0,1.56-2.49,10-3.56,13.6Zm-2.79-3h.55c1.56-5.23,3.08-10.79,3.12-11.68,0-1.2.66-7.39,1-10.49h-.81l-1.1,11.46Z"/><path class="cls-5" d="M502.83,314.89l-2-.7c-.84-.29-3.46-1.21-4.44-1.63-2.25-.14-18,.92-20,1.53a1.84,1.84,0,0,1-1.66.14c-.45-.17-1.62-.64-2.38-4.85l-.08-.41,5.45-14.87,8.59-1.4,2.82-2.55,9.43,4.56,2.08,2.23h2.18ZM476.56,314Zm0,0Zm19.6-1.53h0Zm-20.89-1.08a1,1,0,0,0-.49.2A1.75,1.75,0,0,1,475.27,311.37Zm.12-2.14a12.84,12.84,0,0,0,.56,2c4.56-.94,20.25-2.09,21.56-1.44.23.11,1.18.47,2.32.88V299.94h-.48l-2.59-2.77-7.11-3.44-2,1.79-7.74,1.26Z"/><path class="cls-5" d="M8.13,288.7,5,278.67v-9.86l.76-.43c2.35-1.31,3-1.31,3.24-1.31h1.32l1.33,10.24,1.58,8.37ZM8,278.21l1.87,6,0,0-1.21-6.39L8,272.49Z"/><path class="cls-5" d="M15.42,256.94l-.29-3L91,243.71l6.71,8.37Zm74.26-10L55,251.6l36.72-2.17Z"/><path class="cls-5" d="M493.14,261.06c-9.65-2.6-24.84-6.45-27.14-6.45-3.34,0-85.26-4.49-88.75-4.69l-2.54-.14,5.52-8.8,2.54,1.59-2.82,4.5c14.2.77,83.12,4.54,86.05,4.54,3.43,0,25.42,5.88,27.92,6.55Z"/></svg>