<?xml version="1.0" ?><svg data-name="Layer 1" id="Layer_1" viewBox="0 0 512 512" xmlns="http://www.w3.org/2000/svg"><defs><style>.cls-1{fill:none;stroke:#231f20;stroke-linejoin:round;stroke-width:9.92px;}</style></defs><title/><circle class="cls-1" cx="135.21" cy="354.63" r="48.61"/><circle class="cls-1" cx="376.79" cy="354.63" r="48.61"/><rect class="cls-1" height="33.86" width="79.88" x="197.87" y="109.84"/><polygon class="cls-1" points="226.25 174.57 171.43 174.57 146.64 243.71 226.25 243.73 226.25 174.57"/><polygon class="cls-1" points="256 243.73 256 174.57 304.47 174.57 354.88 243.73 256 243.73"/><path class="cls-1" d="M425.34,352.25h42.2V301.43h-0.35c0.07-1.16.35-2.26,0.35-3.44a54.26,54.26,0,0,0-54.26-54.26h-23.7l-61.4-85.54A34.1,34.1,0,0,0,295.93,144H181.35C146.64,144,139,171.16,139,171.16l-27.05,72.57H71.61c-15,0-27.15,13.94-27.15,31.14v77.38h42.2"/><line class="cls-1" x1="183.77" x2="328.18" y1="352.25" y2="352.25"/></svg>